<svg id="email-14-svgrepo-com" xmlns="http://www.w3.org/2000/svg" width="27.345" height="20.089" viewBox="0 0 27.345 20.089">
  <path id="Path_10" data-name="Path 10" d="M23.548,67.925H3.8a3.8,3.8,0,0,0-3.8,3.8v12.5a3.8,3.8,0,0,0,3.8,3.8H23.548a3.8,3.8,0,0,0,3.8-3.8v-12.5A3.8,3.8,0,0,0,23.548,67.925ZM9.515,81.48,4.2,86.015A.893.893,0,1,1,3.04,84.657l5.316-4.535A.893.893,0,0,1,9.515,81.48Zm4.157-1.724a2.958,2.958,0,0,1-1.939-.7h0l-8.157-7.08a.893.893,0,0,1,1.17-1.349L12.905,77.7a1.241,1.241,0,0,0,1.538,0l0,0L22.6,70.623a.893.893,0,1,1,1.17,1.349l-8.159,7.082A2.967,2.967,0,0,1,13.672,79.755ZM24.4,85.915a.893.893,0,0,1-1.259.1L17.83,81.48a.893.893,0,0,1,1.159-1.358L24.3,84.657A.893.893,0,0,1,24.4,85.915Z" transform="translate(0 -67.925)" fill="#fff"/>
</svg>
