<svg xmlns="http://www.w3.org/2000/svg" width="44" height="44" viewBox="0 0 44 44">
  <g id="instagram-svgrepo-com_3_" data-name="instagram-svgrepo-com (3)" transform="translate(-1 -1)">
    <path id="Path_22" data-name="Path 22" d="M15.727,25.455A9.727,9.727,0,1,0,6,15.727,9.727,9.727,0,0,0,15.727,25.455Zm0-3.242a6.485,6.485,0,1,0-6.485-6.485A6.485,6.485,0,0,0,15.727,22.212Z" transform="translate(7.273 7.273)" fill="#fff" fill-rule="evenodd"/>
    <path id="Path_23" data-name="Path 23" d="M19.455,5a2.455,2.455,0,1,0,2.455,2.455A2.455,2.455,0,0,0,19.455,5Z" transform="translate(15.273 3.818)" fill="#fff"/>
    <path id="Path_24" data-name="Path 24" d="M2.308,7.552C1,10.119,1,13.479,1,20.2v5.6c0,6.721,0,10.081,1.308,12.648a12,12,0,0,0,5.244,5.244C10.119,45,13.479,45,20.2,45h5.6c6.721,0,10.081,0,12.648-1.308a12,12,0,0,0,5.244-5.244C45,35.881,45,32.521,45,25.8V20.2c0-6.721,0-10.081-1.308-12.648a12,12,0,0,0-5.244-5.244C35.881,1,32.521,1,25.8,1H20.2C13.479,1,10.119,1,7.552,2.308A12,12,0,0,0,2.308,7.552ZM25.8,5H20.2c-3.426,0-5.755,0-7.556.15a8.634,8.634,0,0,0-3.276.722,8,8,0,0,0-3.5,3.5,8.634,8.634,0,0,0-.722,3.276C5,14.444,5,16.774,5,20.2v5.6c0,3.426,0,5.755.15,7.556a8.634,8.634,0,0,0,.722,3.276,8,8,0,0,0,3.5,3.5,8.631,8.631,0,0,0,3.276.722c1.8.147,4.13.15,7.556.15h5.6c3.426,0,5.755,0,7.556-.15a8.631,8.631,0,0,0,3.276-.722,8,8,0,0,0,3.5-3.5,8.631,8.631,0,0,0,.722-3.276c.147-1.8.15-4.129.15-7.556V20.2c0-3.426,0-5.755-.15-7.556a8.631,8.631,0,0,0-.722-3.276,8,8,0,0,0-3.5-3.5,8.634,8.634,0,0,0-3.276-.722C31.555,5,29.226,5,25.8,5Z" fill="#fff" fill-rule="evenodd"/>
  </g>
</svg>
