<svg xmlns="http://www.w3.org/2000/svg" width="24.674" height="29.16" viewBox="0 0 24.674 29.16">
  <path id="location-filled-svgrepo-com_2_" data-name="location-filled-svgrepo-com (2)" d="M172.337,125.16c.839,0,4.118-2.4,6.732-5.368,3.484-3.959,5.606-8.378,5.606-12.577,0-6.646-5.462-11.216-12.337-11.216S160,100.569,160,107.216c0,4.217,2.122,8.636,5.605,12.591C168.216,122.771,171.5,125.16,172.337,125.16Zm0-15.253a2.243,2.243,0,1,0-2.243-2.243A2.243,2.243,0,0,0,172.337,109.907Zm0,4.935a7.178,7.178,0,1,1,7.178-7.178A7.178,7.178,0,0,1,172.337,114.842Z" transform="translate(-160 -96)" fill="#fff"/>
</svg>
