<svg xmlns="http://www.w3.org/2000/svg" width="24.396" height="24.392" viewBox="0 0 24.396 24.392">
  <path id="phone-svgrepo-com_5_" data-name="phone-svgrepo-com (5)" d="M24.134,18.5c-.908-1.717-4.062-3.578-4.2-3.66a2.506,2.506,0,0,0-1.224-.353,1.523,1.523,0,0,0-1.362.76,15.083,15.083,0,0,1-1.172,1.3,1.95,1.95,0,0,1-2.846-.284L8.134,11.067a1.957,1.957,0,0,1-.286-2.845,15.233,15.233,0,0,1,1.3-1.174,1.5,1.5,0,0,0,.7-.9,2.236,2.236,0,0,0-.295-1.687C9.473,4.325,7.61,1.171,5.894.263A2.231,2.231,0,0,0,3.273.658L2.125,1.8A6.272,6.272,0,0,0,.171,7.919a12.934,12.934,0,0,0,3.746,5.91l6.65,6.65c2.6,2.6,5.076,3.916,7.364,3.916h0a6.513,6.513,0,0,0,4.66-2.125l1.147-1.147A2.22,2.22,0,0,0,24.134,18.5Z" transform="translate(0 -0.004)" fill="#fff"/>
</svg>
