<svg xmlns="http://www.w3.org/2000/svg" width="50" height="35.113" viewBox="0 0 50 35.113">
  <path id="youtube-svgrepo-com_5_" data-name="youtube-svgrepo-com (5)" d="M52.967,11.887A6.249,6.249,0,0,0,48.53,7.418,151.37,151.37,0,0,0,29,6.387,151.372,151.372,0,0,0,9.469,7.418a6.25,6.25,0,0,0-4.437,4.469A66.465,66.465,0,0,0,4,23.949,66.935,66.935,0,0,0,5.032,36.073a6.25,6.25,0,0,0,4.437,4.375A151.347,151.347,0,0,0,29,41.479a151.345,151.345,0,0,0,19.53-1.031,6.25,6.25,0,0,0,4.437-4.375A66.936,66.936,0,0,0,54,23.949,66.449,66.449,0,0,0,52.967,11.887ZM23.875,31.417V16.543l13.093,7.406L23.875,31.386Z" transform="translate(-4 -6.377)" fill="#fff"/>
</svg>
