<svg xmlns="http://www.w3.org/2000/svg" width="56" height="56" viewBox="0 0 56 56">
  <g id="Group_1294" data-name="Group 1294" transform="translate(-112 -1312)">
    <circle id="Ellipse_127" data-name="Ellipse 127" cx="28" cy="28" r="28" transform="translate(112 1312)" fill="rgba(7,58,185,0.22)"/>
    <path id="email" d="M28.075,4.71H5.183A4.688,4.688,0,0,0,.5,9.393V23.524a4.688,4.688,0,0,0,4.683,4.683H28.075a4.688,4.688,0,0,0,4.683-4.683V9.393A4.688,4.688,0,0,0,28.075,4.71ZM26.691,7.832,25.255,8.966,17.6,15.012a1.563,1.563,0,0,1-1.935,0L8.273,9.174,6.57,7.832H26.692Zm1.384,17.253H5.183a1.563,1.563,0,0,1-1.561-1.561V9.491l10.1,7.976a4.68,4.68,0,0,0,5.806,0l10.1-7.973V23.524A1.563,1.563,0,0,1,28.075,25.084Z" transform="translate(123.5 1323.29)" fill="#073ab9"/>
  </g>
</svg>
