<svg xmlns="http://www.w3.org/2000/svg" width="56" height="56" viewBox="0 0 56 56">
  <g id="Group_1293" data-name="Group 1293" transform="translate(-118 -1374)">
    <circle id="Ellipse_128" data-name="Ellipse 128" cx="28" cy="28" r="28" transform="translate(118 1374)" fill="rgba(7,58,185,0.22)"/>
    <path id="phone" d="M39.965,29.748l-3.379-3.379A5.409,5.409,0,0,0,29,26.337a3.306,3.306,0,0,1-4.192.41A23.081,23.081,0,0,1,18.447,20.4a3.35,3.35,0,0,1,.436-4.207,5.409,5.409,0,0,0-.048-7.562L15.457,5.249a5.4,5.4,0,0,0-7.621,0l-.972.974C1.795,11.292,2.174,21.95,12.721,32.49c6.359,6.361,12.76,9.024,17.951,9.024a11.521,11.521,0,0,0,8.322-3.166l.974-.974A5.4,5.4,0,0,0,39.965,29.748ZM37.793,35.2l-.974.974C32.825,40.171,24.01,39.441,14.89,30.32S5.039,12.377,9.033,8.383L10,7.411a2.321,2.321,0,0,1,3.276,0l3.379,3.379a2.321,2.321,0,0,1,.032,3.241,6.422,6.422,0,0,0-.816,8.048,26.129,26.129,0,0,0,7.24,7.229,6.419,6.419,0,0,0,8.035-.794,2.323,2.323,0,0,1,3.253.02l3.379,3.379a2.319,2.319,0,0,1,.014,3.29Z" transform="translate(123.302 1379.325)" fill="#073ab9"/>
  </g>
</svg>
