<svg id="Page-1" xmlns="http://www.w3.org/2000/svg" width="50" height="50" viewBox="0 0 50 50">
  <g id="Dribbble-Light-Preview">
    <g id="icons">
      <path id="whatsapp-_128_" data-name="whatsapp-[#128]" d="M283.553,7474.3c-.6,1.7-3,3.125-4.908,3.523-1.308.275-3.012.5-8.758-1.875-6.453-2.674-15.413-12.2-15.413-18.523,0-3.227,1.86-7,5.113-7,1.565,0,1.91.051,2.425,1.275.6,1.451,2.072,5.051,2.247,5.4.723,1.523-.735,2.4-1.793,3.7a1.193,1.193,0,0,0-.292,1.574,22.158,22.158,0,0,0,4.055,5.025,18.4,18.4,0,0,0,5.863,3.625,1.57,1.57,0,0,0,1.762-.275,28.488,28.488,0,0,0,1.955-2.6,1.391,1.391,0,0,1,1.793-.525c.447.148,6.135,2.775,6.375,3.2a6.212,6.212,0,0,1-.425,3.477M269.005,7439h-.013A25.031,25.031,0,0,0,244,7464a24.753,24.753,0,0,0,4.76,14.65l-3.115,9.3,9.607-3.074A24.73,24.73,0,0,0,269.005,7489a25,25,0,0,0,0-50" transform="translate(-244 -7439)" fill="#fff" fill-rule="evenodd"/>
    </g>
  </g>
</svg>
